<svg xmlns="http://www.w3.org/2000/svg" viewBox="139 128 1226 148" preserveAspectRatio="xMinYMid meet"><g fill="#f5ede6" fill-opacity="1"><g transform="translate(139.291445, 233.026772)"><g><path d="M 43.203125 -58.359375 L 151.9375 -58.359375 L 151.9375 -36.296875 L 43.203125 -36.296875 L 43.203125 -36.421875 L 43.203125 0 L 10.15625 0 L 10.15625 -94.796875 L 43.203125 -94.796875 Z M 197.03125 0 L 164.125 0 L 164.125 -94.796875 L 197.03125 -94.796875 Z M 197.03125 0 "/></g></g></g><g fill="#f5ede6" fill-opacity="1"><g transform="translate(346.605085, 233.026772)"><g><path d="M 83.015625 -53.484375 L 40.890625 0 L 1.078125 0 L 61.34375 -78.28125 C 63.6875 -81.257812 65.785156 -83.765625 67.640625 -85.796875 C 69.492188 -87.828125 71.476562 -89.425781 73.59375 -90.59375 C 75.71875 -91.769531 78.25 -92.671875 81.1875 -93.296875 C 84.125 -93.929688 87.78125 -94.335938 92.15625 -94.515625 C 96.53125 -94.703125 101.96875 -94.796875 108.46875 -94.796875 C 114.96875 -94.796875 120.429688 -94.703125 124.859375 -94.515625 C 129.285156 -94.335938 132.960938 -93.929688 135.890625 -93.296875 C 138.828125 -92.671875 141.332031 -91.769531 143.40625 -90.59375 C 145.488281 -89.425781 147.476562 -87.828125 149.375 -85.796875 C 151.269531 -83.765625 153.34375 -81.257812 155.59375 -78.28125 L 215.859375 0 L 176.046875 0 L 133.9375 -53.484375 C 131.851562 -56.191406 130.066406 -58.335938 128.578125 -59.921875 C 127.085938 -61.503906 125.53125 -62.675781 123.90625 -63.4375 C 122.28125 -64.207031 120.269531 -64.703125 117.875 -64.921875 C 115.488281 -65.148438 112.351562 -65.265625 108.46875 -65.265625 C 104.59375 -65.265625 101.457031 -65.148438 99.0625 -64.921875 C 96.664062 -64.703125 94.65625 -64.207031 93.03125 -63.4375 C 91.40625 -62.675781 89.847656 -61.503906 88.359375 -59.921875 C 86.867188 -58.335938 85.085938 -56.191406 83.015625 -53.484375 Z M 83.015625 -53.484375 "/></g></g></g><g fill="#f5ede6" fill-opacity="1"><g transform="translate(557.439079, 233.026772)"><g><path d="M 45.90625 0 C 38.769531 0 32.335938 -1.238281 26.609375 -3.71875 C 20.878906 -6.207031 16.320312 -9.890625 12.9375 -14.765625 C 9.550781 -19.640625 7.859375 -25.6875 7.859375 -32.90625 L 7.859375 -61.890625 C 7.859375 -69.109375 9.550781 -75.15625 12.9375 -80.03125 C 16.320312 -84.90625 20.878906 -88.582031 26.609375 -91.0625 C 32.335938 -93.550781 38.769531 -94.796875 45.90625 -94.796875 L 194.46875 -94.796875 L 194.46875 -67.4375 L 67.4375 -67.4375 C 62.113281 -67.4375 57.441406 -67.253906 53.421875 -66.890625 C 49.398438 -66.535156 46.304688 -65.410156 44.140625 -63.515625 C 41.972656 -61.617188 40.890625 -58.320312 40.890625 -53.625 L 40.890625 -41.171875 C 40.890625 -36.472656 41.972656 -33.175781 44.140625 -31.28125 C 46.304688 -29.382812 49.398438 -28.253906 53.421875 -27.890625 C 57.441406 -27.535156 62.113281 -27.359375 67.4375 -27.359375 L 194.46875 -27.359375 L 194.46875 0 Z M 45.90625 0 "/></g></g></g><g fill="#f5ede6" fill-opacity="1"><g transform="translate(759.33628, 233.026772)"><g><path d="M 43.328125 -61.75 L 75.03125 -61.75 L 75.03125 -61.609375 C 79.445312 -61.796875 83.328125 -62.316406 86.671875 -63.171875 C 90.015625 -64.023438 93.148438 -65.285156 96.078125 -66.953125 C 99.015625 -68.628906 102.15625 -70.734375 105.5 -73.265625 L 134.34375 -94.796875 L 183.5 -94.796875 L 131.625 -54.84375 C 127.5625 -51.863281 123.363281 -49.515625 119.03125 -47.796875 C 121.925781 -46.898438 124.679688 -45.796875 127.296875 -44.484375 C 129.910156 -43.171875 132.484375 -41.523438 135.015625 -39.546875 L 186.75 0 L 137.453125 0 L 109.015625 -21.265625 C 105.398438 -23.972656 101.988281 -26.179688 98.78125 -27.890625 C 95.582031 -29.609375 92.128906 -30.875 88.421875 -31.6875 C 84.722656 -32.5 80.257812 -32.90625 75.03125 -32.90625 L 43.328125 -32.90625 L 43.328125 0 L 10.296875 0 L 10.296875 -94.796875 L 43.328125 -94.796875 Z M 43.328125 -61.75 "/></g></g></g><g fill="#ed5b29" fill-opacity="1"><g transform="translate(947.558606, 233.026772)"><g><path d="M 43.203125 -58.359375 L 151.9375 -58.359375 L 151.9375 -36.296875 L 43.203125 -36.296875 L 43.203125 -36.421875 L 43.203125 0 L 10.15625 0 L 10.15625 -94.796875 L 43.203125 -94.796875 Z M 197.03125 0 L 164.125 0 L 164.125 -94.796875 L 197.03125 -94.796875 Z M 197.03125 0 "/></g></g></g><g fill="#ed5b29" fill-opacity="1"><g transform="translate(1154.872245, 233.026772)"><g><path d="M 65.546875 -67.4375 C 60.210938 -67.4375 55.535156 -67.253906 51.515625 -66.890625 C 47.503906 -66.535156 44.414062 -65.410156 42.25 -63.515625 C 40.082031 -61.617188 39 -58.320312 39 -53.625 L 39 -33.578125 L 5.953125 -33.578125 L 5.953125 -61.890625 C 5.953125 -69.109375 7.644531 -75.15625 11.03125 -80.03125 C 14.414062 -84.90625 18.972656 -88.582031 24.703125 -91.0625 C 30.441406 -93.550781 36.878906 -94.796875 44.015625 -94.796875 L 160.34375 -94.796875 L 160.34375 -67.4375 Z M 166.96875 -58.90625 L 200.015625 -58.90625 L 200.015625 -32.765625 C 200.015625 -25.546875 198.320312 -19.5 194.9375 -14.625 C 191.550781 -9.75 186.988281 -6.066406 181.25 -3.578125 C 175.519531 -1.097656 169.09375 0.140625 161.96875 0.140625 L 144.625 0.140625 L 187.828125 33.3125 L 138.53125 33.3125 L 109.828125 11.78125 C 106.578125 9.34375 103.484375 7.285156 100.546875 5.609375 C 97.617188 3.941406 94.53125 2.65625 91.28125 1.75 C 88.03125 0.851562 84.238281 0.316406 79.90625 0.140625 L 46.71875 0.140625 L 46.71875 -27.21875 L 140.4375 -27.21875 C 145.851562 -27.21875 150.546875 -27.394531 154.515625 -27.75 C 158.484375 -28.113281 161.550781 -29.242188 163.71875 -31.140625 C 165.882812 -33.035156 166.96875 -36.332031 166.96875 -41.03125 Z M 166.96875 -58.90625 "/></g></g></g></svg>
