<svg xmlns="http://www.w3.org/2000/svg" viewBox="955 132 402 140" preserveAspectRatio="xMidYMid meet"><g fill="#ed5b29" fill-opacity="1"><g transform="translate(947.558606, 233.026772)"><g><path d="M 43.203125 -58.359375 L 151.9375 -58.359375 L 151.9375 -36.296875 L 43.203125 -36.296875 L 43.203125 -36.421875 L 43.203125 0 L 10.15625 0 L 10.15625 -94.796875 L 43.203125 -94.796875 Z M 197.03125 0 L 164.125 0 L 164.125 -94.796875 L 197.03125 -94.796875 Z M 197.03125 0 "/></g></g></g><g fill="#ed5b29" fill-opacity="1"><g transform="translate(1154.872245, 233.026772)"><g><path d="M 65.546875 -67.4375 C 60.210938 -67.4375 55.535156 -67.253906 51.515625 -66.890625 C 47.503906 -66.535156 44.414062 -65.410156 42.25 -63.515625 C 40.082031 -61.617188 39 -58.320312 39 -53.625 L 39 -33.578125 L 5.953125 -33.578125 L 5.953125 -61.890625 C 5.953125 -69.109375 7.644531 -75.15625 11.03125 -80.03125 C 14.414062 -84.90625 18.972656 -88.582031 24.703125 -91.0625 C 30.441406 -93.550781 36.878906 -94.796875 44.015625 -94.796875 L 160.34375 -94.796875 L 160.34375 -67.4375 Z M 166.96875 -58.90625 L 200.015625 -58.90625 L 200.015625 -32.765625 C 200.015625 -25.546875 198.320312 -19.5 194.9375 -14.625 C 191.550781 -9.75 186.988281 -6.066406 181.25 -3.578125 C 175.519531 -1.097656 169.09375 0.140625 161.96875 0.140625 L 144.625 0.140625 L 187.828125 33.3125 L 138.53125 33.3125 L 109.828125 11.78125 C 106.578125 9.34375 103.484375 7.285156 100.546875 5.609375 C 97.617188 3.941406 94.53125 2.65625 91.28125 1.75 C 88.03125 0.851562 84.238281 0.316406 79.90625 0.140625 L 46.71875 0.140625 L 46.71875 -27.21875 L 140.4375 -27.21875 C 145.851562 -27.21875 150.546875 -27.394531 154.515625 -27.75 C 158.484375 -28.113281 161.550781 -29.242188 163.71875 -31.140625 C 165.882812 -33.035156 166.96875 -36.332031 166.96875 -41.03125 Z M 166.96875 -58.90625 "/></g></g></g></svg>
